<?xml version="1.0" standalone="no"?>
<!DOCTYPE svg PUBLIC "-//W3C//DTD SVG 20010904//EN"
 "http://www.w3.org/TR/2001/REC-SVG-20010904/DTD/svg10.dtd">
<svg version="1.0" xmlns="http://www.w3.org/2000/svg"
 width="138.000000pt" height="138.000000pt" viewBox="0 0 138.000000 138.000000"
 preserveAspectRatio="xMidYMid meet">
<metadata>
Created by potrace 1.11, written by Peter Selinger 2001-2013
</metadata>
<g transform="translate(0.000000,138.000000) scale(0.100000,-0.100000)"
fill="#000000" stroke="none">
<path d="M577 954 c-138 -49 -220 -193 -188 -334 11 -47 4 -60 -32 -60 -26 0
-33 28 -11 46 11 9 15 14 9 11 -5 -2 -48 -16 -95 -31 -129 -41 -155 -56 -155
-90 l-1 -28 76 5 c41 4 100 11 130 17 122 24 118 24 160 -14 52 -47 87 -64
152 -74 69 -11 101 -7 163 22 81 37 133 98 160 189 11 37 13 38 120 76 173 61
258 105 228 117 -7 3 -9 12 -6 21 5 14 -2 15 -63 9 -71 -7 -244 -44 -244 -52
0 -3 16 -3 35 0 20 4 35 2 35 -4 0 -6 -8 -10 -17 -10 -10 0 -25 -5 -33 -10
-10 -6 -3 -8 25 -4 l40 5 -35 -19 c-65 -36 -77 -36 -84 -1 -25 126 -136 219
-269 224 -34 2 -79 -3 -100 -11z"/>
<path d="M350 580 c-9 -6 -10 -10 -3 -10 6 0 15 5 18 10 8 12 4 12 -15 0z"/>
</g>
</svg>
