<svg width="1387" height="773" viewBox="0 0 1387 773" fill="none" xmlns="http://www.w3.org/2000/svg">
<g id="Group 25">
<g id="Star 1" filter="url(#filter0_f)">
<path d="M310.5 2L311.286 4.41844H313.829L311.771 5.91312L312.557 8.33156L310.5 6.83688L308.443 8.33156L309.229 5.91312L307.171 4.41844H309.714L310.5 2Z" fill="#B8B8B8"/>
</g>
<g id="Star 4" filter="url(#filter1_f)">
<path d="M428.5 386L429.286 388.418H431.829L429.771 389.913L430.557 392.332L428.5 390.837L426.443 392.332L427.229 389.913L425.171 388.418H427.714L428.5 386Z" fill="#B8B8B8"/>
</g>
<g id="Ellipse 13" filter="url(#filter2_f)">
<circle r="1.5" transform="matrix(1 0 0 -1 1121.5 133.5)" fill="white"/>
</g>
<g id="Ellipse 14" filter="url(#filter3_f)">
<circle r="1.5" transform="matrix(1 0 0 -1 1157.5 91.5)" fill="white"/>
</g>
<g id="Ellipse 15" filter="url(#filter4_f)">
<circle r="1.5" transform="matrix(1 0 0 -1 1036.5 130.5)" fill="white"/>
</g>
<g id="Ellipse 29" filter="url(#filter5_f)">
<circle r="1.5" transform="matrix(1 0 0 -1 140.5 406.5)" fill="white"/>
</g>
<g id="Ellipse 16" filter="url(#filter6_f)">
<circle r="1.5" transform="matrix(1 0 0 -1 1156.5 277.5)" fill="white"/>
</g>
<g id="Ellipse 27" filter="url(#filter7_f)">
<circle r="1.5" transform="matrix(1 0 0 -1 1378.5 506.5)" fill="white"/>
</g>
<g id="Ellipse 28" filter="url(#filter8_f)">
<circle r="1.5" transform="matrix(1 0 0 -1 563.5 457.5)" fill="white"/>
</g>
<g id="Ellipse 24" filter="url(#filter9_f)">
<circle r="1.5" transform="matrix(1 0 0 -1 1088.5 459.5)" fill="white"/>
</g>
<g id="Ellipse 42" filter="url(#filter10_f)">
<circle r="1.5" transform="matrix(1 0 0 -1 77.5 692.5)" fill="white"/>
</g>
<g id="Ellipse 43" filter="url(#filter11_f)">
<circle r="1.5" transform="matrix(1 0 0 -1 496.5 689.5)" fill="white"/>
</g>
<g id="Ellipse 44" filter="url(#filter12_f)">
<circle r="1.5" transform="matrix(1 0 0 -1 43.5 31.5)" fill="white"/>
</g>
<g id="Ellipse 45" filter="url(#filter13_f)">
<circle r="1.5" transform="matrix(1 0 0 -1 959.5 614.5)" fill="white"/>
</g>
<g id="Ellipse 46" filter="url(#filter14_f)">
<circle r="1.5" transform="matrix(1 0 0 -1 1052.5 767.5)" fill="white"/>
</g>
<g id="Ellipse 47" filter="url(#filter15_f)">
<circle r="1.5" transform="matrix(1 0 0 -1 1286.5 533.5)" fill="white"/>
</g>
<g id="Ellipse 48" filter="url(#filter16_f)">
<circle r="1.5" transform="matrix(1 0 0 -1 1283.5 189.5)" fill="white"/>
</g>
<g id="Ellipse 49" filter="url(#filter17_f)">
<circle r="1.5" transform="matrix(1 0 0 -1 5.5 533.5)" fill="white"/>
</g>
<g id="Ellipse 20" filter="url(#filter18_f)">
<circle r="1.5" transform="matrix(1 0 0 -1 1182.5 403.5)" fill="white"/>
</g>
<g id="Ellipse 21" filter="url(#filter19_f)">
<circle r="1.5" transform="matrix(1 0 0 -1 871.5 283.5)" fill="white"/>
</g>
<g id="Ellipse 36" filter="url(#filter20_f)">
<circle r="1.5" transform="matrix(1 0 0 -1 818.5 110.5)" fill="white"/>
</g>
<g id="Ellipse 37" filter="url(#filter21_f)">
<circle r="1.5" transform="matrix(1 0 0 -1 434.5 136.5)" fill="white"/>
</g>
<g id="Ellipse 38" filter="url(#filter22_f)">
<circle r="1.5" transform="matrix(1 0 0 -1 689.5 319.5)" fill="white"/>
</g>
<g id="Ellipse 39" filter="url(#filter23_f)">
<circle r="1.5" transform="matrix(1 0 0 -1 647.5 30.5)" fill="white"/>
</g>
<g id="Ellipse 40" filter="url(#filter24_f)">
<circle r="1.5" transform="matrix(1 0 0 -1 333.5 557.5)" fill="white"/>
</g>
<g id="Ellipse 41" filter="url(#filter25_f)">
<circle r="1.5" transform="matrix(1 0 0 -1 739.5 666.5)" fill="white"/>
</g>
<g id="Ellipse 34" filter="url(#filter26_f)">
<circle r="1.5" transform="matrix(1 0 0 -1 662.5 173.5)" fill="white"/>
</g>
<g id="Ellipse 35" filter="url(#filter27_f)">
<circle r="1.5" transform="matrix(1 0 0 -1 113.5 129.5)" fill="white"/>
</g>
<g id="Ellipse 22" filter="url(#filter28_f)">
<circle r="1.5" transform="matrix(1 0 0 -1 916.5 413.5)" fill="white"/>
</g>
<g id="Ellipse 18" filter="url(#filter29_f)">
<circle r="1.5" transform="matrix(1 0 0 -1 1043.5 244.5)" fill="white"/>
</g>
<g id="Star 2" filter="url(#filter30_f)">
<path d="M879.5 525L880.286 527.418H882.829L880.771 528.913L881.557 531.332L879.5 529.837L877.443 531.332L878.229 528.913L876.171 527.418H878.714L879.5 525Z" fill="#B8B8B8"/>
</g>
<g id="Star 7" filter="url(#filter31_f)">
<path d="M501.5 285L502.286 287.418H504.829L502.771 288.913L503.557 291.332L501.5 289.837L499.443 291.332L500.229 288.913L498.171 287.418H500.714L501.5 285Z" fill="#B8B8B8"/>
</g>
<g id="Star 5" filter="url(#filter32_f)">
<path d="M238.5 236L239.286 238.418H241.829L239.771 239.913L240.557 242.332L238.5 240.837L236.443 242.332L237.229 239.913L235.171 238.418H237.714L238.5 236Z" fill="#B8B8B8"/>
</g>
<g id="Star 6" filter="url(#filter33_f)">
<path d="M1127.5 638L1128.29 640.418H1130.83L1128.77 641.913L1129.56 644.332L1127.5 642.837L1125.44 644.332L1126.23 641.913L1124.17 640.418H1126.71L1127.5 638Z" fill="#B8B8B8"/>
</g>
<g id="Star 8" filter="url(#filter34_f)">
<path d="M102 598L103.123 601.455H106.755L103.816 603.59L104.939 607.045L102 604.91L99.0611 607.045L100.184 603.59L97.2447 601.455H100.877L102 598Z" fill="#E8E8E8"/>
</g>
<g id="Star 9" filter="url(#filter35_f)">
<path d="M1028 311L1029.12 314.455H1032.76L1029.82 316.59L1030.94 320.045L1028 317.91L1025.06 320.045L1026.18 316.59L1023.24 314.455H1026.88L1028 311Z" fill="#E8E8E8"/>
</g>
<g id="Ellipse 26" filter="url(#filter36_f)">
<circle r="1.5" transform="matrix(1 0 0 -1 1381.5 158.5)" fill="white"/>
</g>
</g>
<defs>
<filter id="filter0_f" x="305.671" y="0.5" width="9.6574" height="9.33156" filterUnits="userSpaceOnUse" color-interpolation-filters="sRGB">
<feFlood flood-opacity="0" result="BackgroundImageFix"/>
<feBlend mode="normal" in="SourceGraphic" in2="BackgroundImageFix" result="shape"/>
<feGaussianBlur stdDeviation="0.75" result="effect1_foregroundBlur"/>
</filter>
<filter id="filter1_f" x="423.671" y="384.5" width="9.6574" height="9.33156" filterUnits="userSpaceOnUse" color-interpolation-filters="sRGB">
<feFlood flood-opacity="0" result="BackgroundImageFix"/>
<feBlend mode="normal" in="SourceGraphic" in2="BackgroundImageFix" result="shape"/>
<feGaussianBlur stdDeviation="0.75" result="effect1_foregroundBlur"/>
</filter>
<filter id="filter2_f" x="1116" y="128" width="11" height="11" filterUnits="userSpaceOnUse" color-interpolation-filters="sRGB">
<feFlood flood-opacity="0" result="BackgroundImageFix"/>
<feBlend mode="normal" in="SourceGraphic" in2="BackgroundImageFix" result="shape"/>
<feGaussianBlur stdDeviation="2" result="effect1_foregroundBlur"/>
</filter>
<filter id="filter3_f" x="1152" y="86" width="11" height="11" filterUnits="userSpaceOnUse" color-interpolation-filters="sRGB">
<feFlood flood-opacity="0" result="BackgroundImageFix"/>
<feBlend mode="normal" in="SourceGraphic" in2="BackgroundImageFix" result="shape"/>
<feGaussianBlur stdDeviation="2" result="effect1_foregroundBlur"/>
</filter>
<filter id="filter4_f" x="1031" y="125" width="11" height="11" filterUnits="userSpaceOnUse" color-interpolation-filters="sRGB">
<feFlood flood-opacity="0" result="BackgroundImageFix"/>
<feBlend mode="normal" in="SourceGraphic" in2="BackgroundImageFix" result="shape"/>
<feGaussianBlur stdDeviation="2" result="effect1_foregroundBlur"/>
</filter>
<filter id="filter5_f" x="135" y="401" width="11" height="11" filterUnits="userSpaceOnUse" color-interpolation-filters="sRGB">
<feFlood flood-opacity="0" result="BackgroundImageFix"/>
<feBlend mode="normal" in="SourceGraphic" in2="BackgroundImageFix" result="shape"/>
<feGaussianBlur stdDeviation="2" result="effect1_foregroundBlur"/>
</filter>
<filter id="filter6_f" x="1151" y="272" width="11" height="11" filterUnits="userSpaceOnUse" color-interpolation-filters="sRGB">
<feFlood flood-opacity="0" result="BackgroundImageFix"/>
<feBlend mode="normal" in="SourceGraphic" in2="BackgroundImageFix" result="shape"/>
<feGaussianBlur stdDeviation="2" result="effect1_foregroundBlur"/>
</filter>
<filter id="filter7_f" x="1373" y="501" width="11" height="11" filterUnits="userSpaceOnUse" color-interpolation-filters="sRGB">
<feFlood flood-opacity="0" result="BackgroundImageFix"/>
<feBlend mode="normal" in="SourceGraphic" in2="BackgroundImageFix" result="shape"/>
<feGaussianBlur stdDeviation="2" result="effect1_foregroundBlur"/>
</filter>
<filter id="filter8_f" x="558" y="452" width="11" height="11" filterUnits="userSpaceOnUse" color-interpolation-filters="sRGB">
<feFlood flood-opacity="0" result="BackgroundImageFix"/>
<feBlend mode="normal" in="SourceGraphic" in2="BackgroundImageFix" result="shape"/>
<feGaussianBlur stdDeviation="2" result="effect1_foregroundBlur"/>
</filter>
<filter id="filter9_f" x="1083" y="454" width="11" height="11" filterUnits="userSpaceOnUse" color-interpolation-filters="sRGB">
<feFlood flood-opacity="0" result="BackgroundImageFix"/>
<feBlend mode="normal" in="SourceGraphic" in2="BackgroundImageFix" result="shape"/>
<feGaussianBlur stdDeviation="2" result="effect1_foregroundBlur"/>
</filter>
<filter id="filter10_f" x="72" y="687" width="11" height="11" filterUnits="userSpaceOnUse" color-interpolation-filters="sRGB">
<feFlood flood-opacity="0" result="BackgroundImageFix"/>
<feBlend mode="normal" in="SourceGraphic" in2="BackgroundImageFix" result="shape"/>
<feGaussianBlur stdDeviation="2" result="effect1_foregroundBlur"/>
</filter>
<filter id="filter11_f" x="491" y="684" width="11" height="11" filterUnits="userSpaceOnUse" color-interpolation-filters="sRGB">
<feFlood flood-opacity="0" result="BackgroundImageFix"/>
<feBlend mode="normal" in="SourceGraphic" in2="BackgroundImageFix" result="shape"/>
<feGaussianBlur stdDeviation="2" result="effect1_foregroundBlur"/>
</filter>
<filter id="filter12_f" x="38" y="26" width="11" height="11" filterUnits="userSpaceOnUse" color-interpolation-filters="sRGB">
<feFlood flood-opacity="0" result="BackgroundImageFix"/>
<feBlend mode="normal" in="SourceGraphic" in2="BackgroundImageFix" result="shape"/>
<feGaussianBlur stdDeviation="2" result="effect1_foregroundBlur"/>
</filter>
<filter id="filter13_f" x="954" y="609" width="11" height="11" filterUnits="userSpaceOnUse" color-interpolation-filters="sRGB">
<feFlood flood-opacity="0" result="BackgroundImageFix"/>
<feBlend mode="normal" in="SourceGraphic" in2="BackgroundImageFix" result="shape"/>
<feGaussianBlur stdDeviation="2" result="effect1_foregroundBlur"/>
</filter>
<filter id="filter14_f" x="1047" y="762" width="11" height="11" filterUnits="userSpaceOnUse" color-interpolation-filters="sRGB">
<feFlood flood-opacity="0" result="BackgroundImageFix"/>
<feBlend mode="normal" in="SourceGraphic" in2="BackgroundImageFix" result="shape"/>
<feGaussianBlur stdDeviation="2" result="effect1_foregroundBlur"/>
</filter>
<filter id="filter15_f" x="1281" y="528" width="11" height="11" filterUnits="userSpaceOnUse" color-interpolation-filters="sRGB">
<feFlood flood-opacity="0" result="BackgroundImageFix"/>
<feBlend mode="normal" in="SourceGraphic" in2="BackgroundImageFix" result="shape"/>
<feGaussianBlur stdDeviation="2" result="effect1_foregroundBlur"/>
</filter>
<filter id="filter16_f" x="1278" y="184" width="11" height="11" filterUnits="userSpaceOnUse" color-interpolation-filters="sRGB">
<feFlood flood-opacity="0" result="BackgroundImageFix"/>
<feBlend mode="normal" in="SourceGraphic" in2="BackgroundImageFix" result="shape"/>
<feGaussianBlur stdDeviation="2" result="effect1_foregroundBlur"/>
</filter>
<filter id="filter17_f" x="0" y="528" width="11" height="11" filterUnits="userSpaceOnUse" color-interpolation-filters="sRGB">
<feFlood flood-opacity="0" result="BackgroundImageFix"/>
<feBlend mode="normal" in="SourceGraphic" in2="BackgroundImageFix" result="shape"/>
<feGaussianBlur stdDeviation="2" result="effect1_foregroundBlur"/>
</filter>
<filter id="filter18_f" x="1177" y="398" width="11" height="11" filterUnits="userSpaceOnUse" color-interpolation-filters="sRGB">
<feFlood flood-opacity="0" result="BackgroundImageFix"/>
<feBlend mode="normal" in="SourceGraphic" in2="BackgroundImageFix" result="shape"/>
<feGaussianBlur stdDeviation="2" result="effect1_foregroundBlur"/>
</filter>
<filter id="filter19_f" x="866" y="278" width="11" height="11" filterUnits="userSpaceOnUse" color-interpolation-filters="sRGB">
<feFlood flood-opacity="0" result="BackgroundImageFix"/>
<feBlend mode="normal" in="SourceGraphic" in2="BackgroundImageFix" result="shape"/>
<feGaussianBlur stdDeviation="2" result="effect1_foregroundBlur"/>
</filter>
<filter id="filter20_f" x="813" y="105" width="11" height="11" filterUnits="userSpaceOnUse" color-interpolation-filters="sRGB">
<feFlood flood-opacity="0" result="BackgroundImageFix"/>
<feBlend mode="normal" in="SourceGraphic" in2="BackgroundImageFix" result="shape"/>
<feGaussianBlur stdDeviation="2" result="effect1_foregroundBlur"/>
</filter>
<filter id="filter21_f" x="429" y="131" width="11" height="11" filterUnits="userSpaceOnUse" color-interpolation-filters="sRGB">
<feFlood flood-opacity="0" result="BackgroundImageFix"/>
<feBlend mode="normal" in="SourceGraphic" in2="BackgroundImageFix" result="shape"/>
<feGaussianBlur stdDeviation="2" result="effect1_foregroundBlur"/>
</filter>
<filter id="filter22_f" x="684" y="314" width="11" height="11" filterUnits="userSpaceOnUse" color-interpolation-filters="sRGB">
<feFlood flood-opacity="0" result="BackgroundImageFix"/>
<feBlend mode="normal" in="SourceGraphic" in2="BackgroundImageFix" result="shape"/>
<feGaussianBlur stdDeviation="2" result="effect1_foregroundBlur"/>
</filter>
<filter id="filter23_f" x="642" y="25" width="11" height="11" filterUnits="userSpaceOnUse" color-interpolation-filters="sRGB">
<feFlood flood-opacity="0" result="BackgroundImageFix"/>
<feBlend mode="normal" in="SourceGraphic" in2="BackgroundImageFix" result="shape"/>
<feGaussianBlur stdDeviation="2" result="effect1_foregroundBlur"/>
</filter>
<filter id="filter24_f" x="328" y="552" width="11" height="11" filterUnits="userSpaceOnUse" color-interpolation-filters="sRGB">
<feFlood flood-opacity="0" result="BackgroundImageFix"/>
<feBlend mode="normal" in="SourceGraphic" in2="BackgroundImageFix" result="shape"/>
<feGaussianBlur stdDeviation="2" result="effect1_foregroundBlur"/>
</filter>
<filter id="filter25_f" x="734" y="661" width="11" height="11" filterUnits="userSpaceOnUse" color-interpolation-filters="sRGB">
<feFlood flood-opacity="0" result="BackgroundImageFix"/>
<feBlend mode="normal" in="SourceGraphic" in2="BackgroundImageFix" result="shape"/>
<feGaussianBlur stdDeviation="2" result="effect1_foregroundBlur"/>
</filter>
<filter id="filter26_f" x="657" y="168" width="11" height="11" filterUnits="userSpaceOnUse" color-interpolation-filters="sRGB">
<feFlood flood-opacity="0" result="BackgroundImageFix"/>
<feBlend mode="normal" in="SourceGraphic" in2="BackgroundImageFix" result="shape"/>
<feGaussianBlur stdDeviation="2" result="effect1_foregroundBlur"/>
</filter>
<filter id="filter27_f" x="108" y="124" width="11" height="11" filterUnits="userSpaceOnUse" color-interpolation-filters="sRGB">
<feFlood flood-opacity="0" result="BackgroundImageFix"/>
<feBlend mode="normal" in="SourceGraphic" in2="BackgroundImageFix" result="shape"/>
<feGaussianBlur stdDeviation="2" result="effect1_foregroundBlur"/>
</filter>
<filter id="filter28_f" x="911" y="408" width="11" height="11" filterUnits="userSpaceOnUse" color-interpolation-filters="sRGB">
<feFlood flood-opacity="0" result="BackgroundImageFix"/>
<feBlend mode="normal" in="SourceGraphic" in2="BackgroundImageFix" result="shape"/>
<feGaussianBlur stdDeviation="2" result="effect1_foregroundBlur"/>
</filter>
<filter id="filter29_f" x="1038" y="239" width="11" height="11" filterUnits="userSpaceOnUse" color-interpolation-filters="sRGB">
<feFlood flood-opacity="0" result="BackgroundImageFix"/>
<feBlend mode="normal" in="SourceGraphic" in2="BackgroundImageFix" result="shape"/>
<feGaussianBlur stdDeviation="2" result="effect1_foregroundBlur"/>
</filter>
<filter id="filter30_f" x="874.672" y="523.5" width="9.6574" height="9.33156" filterUnits="userSpaceOnUse" color-interpolation-filters="sRGB">
<feFlood flood-opacity="0" result="BackgroundImageFix"/>
<feBlend mode="normal" in="SourceGraphic" in2="BackgroundImageFix" result="shape"/>
<feGaussianBlur stdDeviation="0.75" result="effect1_foregroundBlur"/>
</filter>
<filter id="filter31_f" x="496.672" y="283.5" width="9.6574" height="9.33156" filterUnits="userSpaceOnUse" color-interpolation-filters="sRGB">
<feFlood flood-opacity="0" result="BackgroundImageFix"/>
<feBlend mode="normal" in="SourceGraphic" in2="BackgroundImageFix" result="shape"/>
<feGaussianBlur stdDeviation="0.75" result="effect1_foregroundBlur"/>
</filter>
<filter id="filter32_f" x="233.671" y="234.5" width="9.6574" height="9.33156" filterUnits="userSpaceOnUse" color-interpolation-filters="sRGB">
<feFlood flood-opacity="0" result="BackgroundImageFix"/>
<feBlend mode="normal" in="SourceGraphic" in2="BackgroundImageFix" result="shape"/>
<feGaussianBlur stdDeviation="0.75" result="effect1_foregroundBlur"/>
</filter>
<filter id="filter33_f" x="1122.67" y="636.5" width="9.6574" height="9.33156" filterUnits="userSpaceOnUse" color-interpolation-filters="sRGB">
<feFlood flood-opacity="0" result="BackgroundImageFix"/>
<feBlend mode="normal" in="SourceGraphic" in2="BackgroundImageFix" result="shape"/>
<feGaussianBlur stdDeviation="0.75" result="effect1_foregroundBlur"/>
</filter>
<filter id="filter34_f" x="95.7451" y="596.5" width="12.5106" height="12.0451" filterUnits="userSpaceOnUse" color-interpolation-filters="sRGB">
<feFlood flood-opacity="0" result="BackgroundImageFix"/>
<feBlend mode="normal" in="SourceGraphic" in2="BackgroundImageFix" result="shape"/>
<feGaussianBlur stdDeviation="0.75" result="effect1_foregroundBlur"/>
</filter>
<filter id="filter35_f" x="1021.74" y="309.5" width="12.5106" height="12.0451" filterUnits="userSpaceOnUse" color-interpolation-filters="sRGB">
<feFlood flood-opacity="0" result="BackgroundImageFix"/>
<feBlend mode="normal" in="SourceGraphic" in2="BackgroundImageFix" result="shape"/>
<feGaussianBlur stdDeviation="0.75" result="effect1_foregroundBlur"/>
</filter>
<filter id="filter36_f" x="1376" y="153" width="11" height="11" filterUnits="userSpaceOnUse" color-interpolation-filters="sRGB">
<feFlood flood-opacity="0" result="BackgroundImageFix"/>
<feBlend mode="normal" in="SourceGraphic" in2="BackgroundImageFix" result="shape"/>
<feGaussianBlur stdDeviation="2" result="effect1_foregroundBlur"/>
</filter>
</defs>
</svg>
